<svg xmlns="http://www.w3.org/2000/svg" xmlns:xlink="http://www.w3.org/1999/xlink" version="1.1" x="0px" y="0px" viewBox="0 0 595.28 745" enable-background="new 0 0 595.28 596" xml:space="preserve"><path d="M444.806,228.365c0,3.519-2.851,6.369-6.368,6.369H156.842c-3.518,0-6.367-2.851-6.367-6.369l0,0  c0-3.52,2.85-6.368,6.367-6.368h281.596C441.955,221.997,444.806,224.846,444.806,228.365L444.806,228.365z"/><path d="M444.806,298.002c0,3.52-2.851,6.369-6.368,6.369H156.842c-3.518,0-6.367-2.85-6.367-6.369l0,0  c0-3.519,2.85-6.368,6.367-6.368h281.596C441.955,291.634,444.806,294.483,444.806,298.002L444.806,298.002z"/><path d="M444.806,367.634c0,3.519-2.851,6.369-6.368,6.369H156.842c-3.518,0-6.367-2.851-6.367-6.369l0,0  c0-3.52,2.85-6.37,6.367-6.37h281.596C441.955,361.264,444.806,364.114,444.806,367.634L444.806,367.634z"/><text x="0" y="611" fill="#000000" font-size="5px" font-weight="bold" font-family="'Helvetica Neue', Helvetica, Arial-Unicode, Arial, Sans-serif">Created by Iconic</text><text x="0" y="616" fill="#000000" font-size="5px" font-weight="bold" font-family="'Helvetica Neue', Helvetica, Arial-Unicode, Arial, Sans-serif">from the Noun Project</text></svg>